<?xml version="1.0" encoding="UTF-8" standalone="no"?><svg xmlns="http://www.w3.org/2000/svg" xmlns:xlink="http://www.w3.org/1999/xlink" clip-rule="evenodd" stroke-miterlimit="4.00" viewBox="0 0 1024 768"><desc>SVG generated by Keynote</desc><defs></defs><g transform="matrix(1.00, 0.00, -0.00, -1.00, 0.0, 768.0)"><path d="M 0.0 768.0 L 1024.0 768.0 L 1024.0 0.0 L 0.0 0.0 Z M 0.0 768.0 " fill="#FEFFFF"></path><image xlink:href="../../619E45A3-ABB4-4DDA-B6E8-FE7DA2D56341/assets/915466EDD8262BF26E2DB76D521BCFC0.png" width="512.00" height="512.00" transform="matrix(1.00, 0.00, -0.00, -1.00, 204.0, 355.0)"></image><image xlink:href="../../619E45A3-ABB4-4DDA-B6E8-FE7DA2D56341/assets/2B09606725A6A7BA82F7EBC32D23E30D.png" width="512.00" height="512.00" transform="matrix(1.00, 0.00, -0.00, -1.00, 565.0, 510.0)"></image><image xlink:href="../../619E45A3-ABB4-4DDA-B6E8-FE7DA2D56341/assets/C29553D615E860E1C4FE5D7A316E82D3.png" width="512.00" height="512.00" transform="matrix(1.00, 0.00, -0.00, -1.00, 596.0, 939.0)"></image><image xlink:href="../../619E45A3-ABB4-4DDA-B6E8-FE7DA2D56341/assets/EEFAD12FC6F89672A9B53D89FE19D741.png" width="512.00" height="512.00" transform="matrix(1.00, 0.00, -0.00, -1.00, 236.0, 827.0)"></image><image xlink:href="../../619E45A3-ABB4-4DDA-B6E8-FE7DA2D56341/assets/E48C49D7EB1A79963E3E9F1E16822345.png" width="512.00" height="512.00" transform="matrix(1.00, 0.00, -0.00, -1.00, -101.0, 701.0)"></image><image xlink:href="../../619E45A3-ABB4-4DDA-B6E8-FE7DA2D56341/assets/ED3A56698E20E3A1D85019AB8D6C357F.png" width="1098.00" height="802.00" transform="matrix(1.00, 0.00, -0.00, -1.00, -37.0, 783.1)" opacity="0.50"></image><path d="M -34.0 782.1 L 1058.0 782.1 L 1058.0 -14.1 L -34.0 -14.1 Z M -34.0 782.1 " fill="#4265AF" fill-opacity="0.67"></path><image xlink:href="../../CAF00B45-777A-41FB-B330-61C659153012/assets/F0789D90CDA211C42C1F6460821DD750.jpeg" width="294.00" height="182.00" transform="matrix(2.82, 0.00, -0.00, -2.81, 98.0, 701.0)"></image></g></svg>